<?xml version="1.0" encoding="utf-8"?>
<!-- Generator: Adobe Illustrator 16.2.0, SVG Export Plug-In . SVG Version: 6.00 Build 0)  -->
<!DOCTYPE svg PUBLIC "-//W3C//DTD SVG 1.1//EN" "http://www.w3.org/Graphics/SVG/1.1/DTD/svg11.dtd">
<svg version="1.1" id="レイヤー_1" xmlns="http://www.w3.org/2000/svg" xmlns:xlink="http://www.w3.org/1999/xlink" x="0px"
	 y="0px" width="124.522px" height="52.193px" viewBox="0 0 124.522 52.193" enable-background="new 0 0 124.522 52.193"
	 xml:space="preserve">
<path fill="#231815" d="M108.898,52.193c-5.268-20.253-23.674-35.207-45.577-35.207c-21.902,0-40.309,14.954-45.576,35.207h5.915
	c4.583-17.625,20.602-30.637,39.661-30.637c19.06,0,35.078,13.012,39.662,30.637H108.898z"/>
<path fill="#231815" d="M45.955,45.196c2.513,0,4.55-2.036,4.55-4.55c0-2.513-2.037-4.55-4.55-4.55c-2.513,0-4.55,2.037-4.55,4.55
	C41.405,43.16,43.442,45.196,45.955,45.196"/>
<path fill="#231815" d="M76.895,45.196c2.514,0,4.551-2.036,4.551-4.55c0-2.513-2.037-4.55-4.551-4.55
	c-2.513,0-4.549,2.037-4.549,4.55C72.346,43.16,74.382,45.196,76.895,45.196"/>
<line fill="none" stroke="#231815" stroke-width="3.64" x1="0.257" y1="45.178" x2="12.998" y2="46.999"/>
<line fill="none" stroke="#231815" stroke-width="3.64" x1="0.257" y1="45.178" x2="12.998" y2="46.999"/>
<line fill="none" stroke="#231815" stroke-width="3.64" x1="9.145" y1="25.816" x2="20.103" y2="32.565"/>
<line fill="none" stroke="#231815" stroke-width="3.64" x1="30.269" y1="6.997" x2="37.253" y2="17.806"/>
<g>
	<line fill="none" stroke="#231815" stroke-width="3.64" x1="64.848" y1="0.32" x2="62.584" y2="12.989"/>
</g>
<line fill="none" stroke="#231815" stroke-width="3.64" x1="97.343" y1="10" x2="88.71" y2="19.543"/>
<line fill="none" stroke="#231815" stroke-width="3.64" x1="117.69" y1="28.553" x2="105.568" y2="32.875"/>
<g>
	<line fill="none" stroke="#231815" stroke-width="3.64" x1="124.511" y1="48.208" x2="111.642" y2="48.124"/>
</g>
</svg>
